<svg width="238" height="306" viewBox="0 0 238 306" fill="none" xmlns="http://www.w3.org/2000/svg">
<path fill-rule="evenodd" clip-rule="evenodd" d="M91.5754 32.8775C91.6072 31.5461 91.9832 30.3037 92.586 29.126C92.698 28.8784 92.8255 28.6382 92.9677 28.4067C94.6381 25.9679 95.1634 23.2396 95.0174 20.3284C94.9687 19.3884 94.9595 18.4464 94.9503 17.5038V17.5037V17.5036V17.5035V17.5034V17.5033V17.5032V17.5031V17.503V17.5029V17.5028V17.5027V17.5026V17.5025V17.5019C94.9441 16.864 94.9379 16.2259 94.9195 15.5879C94.811 11.834 96.1029 8.53771 98.2293 5.53488C99.823 3.28562 102.689 2.59254 105.193 3.76539C106.258 4.26559 106.87 5.14993 107.139 6.24922C107.324 7.00546 107.419 7.78672 107.514 8.56109L107.547 8.82623C107.61 9.32494 107.659 9.82539 107.708 10.3259L107.708 10.3262L107.708 10.3267C107.76 10.8554 107.812 11.384 107.88 11.9108C108.024 13.033 108.091 13.0624 109.487 12.8752C109.535 12.7184 109.585 12.5566 109.636 12.3914L109.637 12.3889L109.637 12.3882L109.638 12.3858L109.638 12.3851L109.639 12.3826L109.639 12.3819C109.739 12.0591 109.843 11.7233 109.942 11.3861C110.513 9.44984 111.203 7.56265 112.182 5.7907C112.82 4.64646 113.543 3.55942 114.451 2.6097C115.517 1.49406 116.698 0.555777 118.265 0.239474C118.367 0.218404 118.46 0.15332 118.553 0.0881198L118.553 0.0880983C118.597 0.0572002 118.641 0.0262769 118.686 0H119.991C120.018 0.0236461 120.044 0.0519921 120.069 0.0801689V0.0801794L120.069 0.0802088V0.0802165C120.12 0.136755 120.171 0.192601 120.232 0.208416C122.042 0.673471 123.039 1.98527 123.708 3.60519C124.232 4.87286 124.477 6.21162 124.545 7.57655C124.679 10.1552 124.468 12.7183 123.752 15.1817C122.855 18.2761 123.045 21.3018 123.739 24.3757C124.134 26.1256 124.485 27.8902 124.693 29.6736C125.044 32.6772 124.105 35.2591 121.845 37.3147C121.192 37.9064 120.477 38.4181 119.635 38.6633C119.067 38.8357 118.475 38.9184 117.882 38.9085C116.926 38.8799 116.251 38.2546 116.117 37.3032C116.005 36.5489 115.972 35.7849 116.02 35.0237C116.183 32.9077 116.375 30.7925 116.619 28.6854L116.658 28.3574L116.658 28.3572C116.955 25.8149 117.251 23.277 117.117 20.7076C117.043 19.2887 116.72 17.9287 116.332 16.5393C114.682 16.7918 113.669 17.6418 113.412 19.2364C113.219 20.4165 113.092 21.6065 113.032 22.8007C112.997 23.5257 112.969 24.2511 112.941 24.9765L112.941 24.9771L112.941 24.9778L112.941 24.9785L112.941 24.9791L112.941 24.9798L112.941 24.9805L112.941 24.9812L112.941 24.9819L112.941 24.9826L112.941 24.9833L112.941 24.9839L112.941 24.9846L112.941 24.9853L112.941 24.986V24.9863C112.853 27.2504 112.766 29.5139 112.461 31.7635C112.211 33.6008 111.874 35.4177 111.203 37.1578C110.849 38.0789 110.411 38.9559 109.718 39.6694C108.908 40.508 107.93 40.8823 106.764 40.6649C105.541 40.4409 104.855 39.7658 104.741 38.4581C104.652 37.4348 104.717 36.3919 104.781 35.3621C104.839 34.4394 104.961 33.5182 105.107 32.6053C105.504 30.1246 105.4 27.5896 104.802 25.1497C104.469 23.7603 104.313 23.614 102.643 23.6099C102.564 23.7425 102.498 23.8827 102.447 24.0284C102.339 24.4562 102.237 24.8859 102.134 25.3155L102.134 25.3159L102.134 25.3162L102.134 25.3166L102.134 25.3169L102.134 25.3173L102.134 25.3176L102.134 25.318L102.134 25.3183L102.134 25.3187L102.134 25.319L102.133 25.3194L102.133 25.3197L102.133 25.3201L102.133 25.3204L102.133 25.3205L102.133 25.3206L102.133 25.3207L102.133 25.3207L102.133 25.3208L102.133 25.3209L102.133 25.321L102.133 25.321L102.133 25.3211L102.133 25.3212L102.133 25.3213L102.133 25.3213L102.133 25.3214L102.133 25.3215C101.946 26.1063 101.76 26.8911 101.536 27.6646C101.033 29.3998 100.7 31.148 100.677 32.9641C100.649 35.0891 100.484 37.2068 100.07 39.2975C99.8377 40.4785 99.4747 41.6162 98.8589 42.66C97.8843 44.3134 96.4724 45.2827 94.5451 45.5124C93.3421 45.6554 92.1578 45.5369 90.971 45.3939C90.7567 45.3587 90.5476 45.2967 90.3487 45.2092C89.4515 44.8569 89.1709 44.3968 89.3186 43.4397C89.3727 43.1184 89.4618 42.804 89.5845 42.5022C89.8031 41.9456 90.0339 41.3915 90.2924 40.8529C91.1994 38.9827 91.6301 36.9166 91.5461 34.839C91.5281 34.3418 91.5445 33.8446 91.5609 33.3474C91.5661 33.1908 91.5713 33.0341 91.5754 32.8775ZM126.832 236.597C129.875 235.571 132.959 234.717 136.14 234.252C137.121 234.102 138.114 234.06 139.104 234.127C139.294 234.844 139.213 235.486 139.091 236.114C138.121 241.135 135.719 245.38 132.121 248.977C131.305 249.794 130.327 250.366 129.244 250.789C127.362 251.525 125.404 251.974 123.431 252.35C120.923 252.828 118.407 253.261 115.891 253.691C112.232 254.315 108.733 255.489 105.27 256.781C103.743 257.353 102.221 257.934 100.715 258.557C95.5949 260.678 90.4385 262.716 85.1883 264.478C79.567 266.364 74.7548 269.545 70.3652 273.448C69.5093 274.206 68.6735 274.985 67.8579 275.785C66.2748 277.333 64.4486 278.491 62.3598 279.198L62.1571 279.266C60.2196 279.923 58.2772 280.581 56.2997 281.092C52.8235 281.991 49.6931 283.549 46.7879 285.618C43.8516 287.709 41.2017 290.132 38.7703 292.786C37.4498 294.227 36.1766 295.711 34.9036 297.196L34.8984 297.202L34.8958 297.205L34.8945 297.206C34.4344 297.743 33.9743 298.279 33.512 298.813C33.1359 299.248 32.7656 299.688 32.3952 300.128L32.3939 300.13L32.3934 300.13L32.3932 300.13C31.8877 300.731 31.3822 301.331 30.862 301.919C30.0798 302.801 29.1418 303.361 27.9029 303.426C27.2724 303.46 26.6289 303.698 26.04 303.956C24.7962 304.496 23.5613 305.074 22.3697 305.722C21.6601 306.109 21.0696 306.091 20.4008 305.676C20.0234 305.443 19.6322 305.229 19.2411 305.016L19.2407 305.016L19.2402 305.016L19.2395 305.015L19.2386 305.015L19.2373 305.014L19.2367 305.014C18.7688 304.758 18.3012 304.503 17.8577 304.214C17.1236 303.738 16.4197 303.651 15.5478 303.791C14.2758 303.994 12.9725 304.033 11.6792 304.071L11.4966 304.076C10.2732 304.112 9.398 303.456 8.94207 302.378C8.56443 301.485 8.34095 300.52 8.12155 299.57C7.96799 298.905 7.85997 298.231 7.75612 297.583L7.75602 297.582C7.71153 297.304 7.6678 297.031 7.62157 296.766C7.17281 296.381 6.70303 296.307 6.24419 296.235C6.16846 296.223 6.09304 296.211 6.01805 296.198C5.85649 296.17 5.69488 296.142 5.53325 296.114C5.10655 296.04 4.67977 295.966 4.25385 295.886C3.03042 295.654 1.9701 295.206 1.42119 293.957C1.37095 293.845 1.2321 293.768 1.09325 293.691C1.0292 293.655 0.965146 293.62 0.90979 293.581V292.6C1.26867 292.415 1.47012 292.124 1.60633 291.74C2.01583 290.606 2.7099 289.596 3.62174 288.808L3.66529 288.769C4.83122 287.74 6.00718 286.701 7.29613 285.842C11.7804 282.849 16.665 280.509 21.8045 278.889C23.517 278.347 25.284 277.973 27.0488 277.6L27.049 277.6L27.0492 277.6L27.0495 277.6L27.0497 277.599L27.05 277.599L27.0504 277.599L27.0507 277.599L27.0575 277.598L27.0642 277.596L27.0704 277.595C27.5854 277.486 28.1002 277.377 28.6133 277.264C29.2742 277.118 29.9357 276.975 30.5972 276.832L30.6024 276.83L30.608 276.829L30.6138 276.828L30.6141 276.828L30.6145 276.828L30.6148 276.828L30.6152 276.828L30.6156 276.828L30.6159 276.827L30.6163 276.827L30.6166 276.827L30.6169 276.827L30.6173 276.827L30.6176 276.827L30.6179 276.827L30.6183 276.827L30.6186 276.827C33.9303 276.11 37.2411 275.393 40.4733 274.348C44.6901 272.986 48.7315 271.203 52.2648 268.527C58.5826 263.742 65.6353 260.418 72.9931 257.682C78.4982 255.633 84.0404 253.683 89.5821 251.733L91.4009 251.093C98.3264 248.656 105.063 245.768 111.743 242.734C116.69 240.487 121.679 238.334 126.832 236.597ZM8.56528 270.549C8.6447 270.74 8.7618 270.915 8.88251 271.096L8.88297 271.096L8.88493 271.099L8.88632 271.102C8.94288 271.186 9.00016 271.272 9.05465 271.361C10.3466 271.078 11.3751 270.478 12.2723 269.685C13.7408 268.385 15.3154 267.221 16.8899 266.057L16.8905 266.057C17.2396 265.799 17.5888 265.541 17.9368 265.281C19.4653 264.142 20.8951 262.889 22.1267 261.418C23.4105 259.889 24.3117 258.161 24.6445 256.187C24.8477 255.007 24.9568 253.813 24.9707 252.615C24.9822 251.259 24.9456 249.901 24.909 248.542C24.8884 247.776 24.8678 247.011 24.8557 246.245C24.8532 246.079 24.8443 245.912 24.8353 245.743C24.8036 245.15 24.7703 244.526 25.0026 243.793C26.2341 244.023 26.9821 244.673 27.4592 245.619C27.6078 245.917 27.7575 246.215 27.9071 246.513C28.8328 248.356 29.7579 250.197 30.4207 252.158C30.9672 253.773 31.2878 255.427 31.1621 257.131C31.1157 257.765 31.043 258.397 30.9703 259.029L30.9703 259.029C30.8999 259.642 30.8294 260.254 30.7829 260.868C30.6669 262.39 30.596 263.916 30.525 265.442L30.5178 265.597C30.5095 265.773 30.5476 265.949 30.5879 266.137C30.6072 266.226 30.627 266.318 30.6426 266.414C31.5218 266.592 32.3073 266.434 33.0895 266.229C35.2917 265.65 37.1986 264.503 38.9032 263.041C40.4709 261.697 41.9814 260.282 43.4495 258.827C44.0148 258.265 44.5253 257.562 44.819 256.826C46.1721 253.424 46.6533 249.896 46.0424 246.257C45.5938 243.584 44.5033 241.161 43.0858 238.878C42.3109 237.631 41.532 236.379 40.6642 235.2C39.6516 233.818 39.0014 232.269 38.3492 230.715L38.349 230.715C38.0341 229.965 37.7187 229.213 37.3617 228.479C37.4347 228.386 37.4983 228.295 37.5584 228.209L37.5588 228.209L37.5591 228.208L37.5593 228.208C37.6707 228.05 37.7703 227.908 37.8968 227.794L38.1488 227.569L38.1506 227.567L38.1508 227.567L38.151 227.567C39.2007 226.628 40.2507 225.689 41.3224 224.781C41.9489 224.25 42.5839 223.728 43.2188 223.207C44.0536 222.521 44.8882 221.836 45.7031 221.127C46.6598 220.295 47.0897 219.218 46.9681 217.918C46.8213 216.359 47.2128 214.889 47.8482 213.482L47.8788 213.415C48.3172 212.447 48.757 211.477 49.2576 210.54C50.0447 209.062 50.3823 207.484 50.4296 205.83C50.4606 204.85 50.481 203.869 50.4606 202.888C50.4158 200.732 50.7665 198.664 51.6767 196.695C52.2069 195.551 52.5258 194.335 52.5144 193.062L52.5086 192.388V192.388C52.4848 189.618 52.461 186.848 52.3855 184.08C52.3619 183.217 52.1767 182.35 51.994 181.5C51.1621 177.625 48.9656 174.941 45.1175 173.736L45.0746 173.722L44.9913 173.696L44.985 173.694L44.9831 173.694L44.9825 173.694C44.8719 173.659 44.7614 173.625 44.6518 173.588C42.0245 172.704 39.3157 172.084 36.5657 171.738C35.1163 171.55 33.6294 171.452 32.18 171.563C27.3181 171.93 23.0589 173.858 19.2932 176.916C17.8908 178.042 16.6934 179.403 15.7542 180.939C14.1376 183.61 13.53 186.466 14.2192 189.553C14.2887 189.865 14.353 190.175 14.4173 190.485L14.4174 190.485L14.4175 190.486C14.4633 190.707 14.5091 190.927 14.5569 191.15C15.078 193.555 15.3325 195.982 15.2208 198.448C15.1229 200.599 14.7151 202.642 13.6115 204.536C13.1049 205.406 12.6925 206.332 12.2809 207.257C12.183 207.477 12.0851 207.697 11.986 207.916C11.3738 209.263 11.1416 210.752 11.3147 212.222C11.3366 212.41 11.3575 212.599 11.3783 212.788L11.3784 212.789C11.4351 213.303 11.4919 213.818 11.57 214.329C11.9991 217.108 11.7168 219.756 10.1835 222.189C9.94559 222.567 9.73781 222.964 9.53011 223.361L9.52977 223.362C9.45986 223.496 9.38996 223.629 9.31891 223.762C9.06281 224.242 8.81159 224.72 8.56691 225.211C7.87607 226.608 7.54248 228.089 7.70561 229.642C7.86873 231.21 8.04572 232.779 8.32304 234.332C8.9111 237.62 9.17373 240.902 8.67946 244.24C8.1852 247.578 7.69419 250.917 7.30188 254.268C6.88264 257.843 6.69179 261.432 7.17056 265.024C7.4234 266.919 7.83121 268.777 8.56528 270.549ZM27.5563 204.003C27.5601 203.561 27.5629 203.119 27.5657 202.677V202.676C27.5753 201.163 27.5848 199.65 27.6378 198.139C27.6849 197.001 27.7939 195.866 27.9641 194.74C28.0637 194.152 28.2389 193.58 28.4853 193.037C28.9404 191.974 29.7405 191.484 30.9321 191.557C33.1278 191.691 34.6343 192.975 34.8406 195.168C34.9466 196.291 34.9442 197.471 34.715 198.568C34.2925 200.581 33.7069 202.564 33.1058 204.534C32.8554 205.351 32.4353 206.135 32.0128 206.89C31.3652 208.048 30.4411 208.946 29.0611 209.662C28.2691 208.397 27.7455 207.168 27.6126 205.793C27.5636 205.197 27.5448 204.6 27.5563 204.003ZM12.3873 171.971C11.3955 171.455 10.7267 170.689 10.1378 169.846C9.17945 168.479 8.66968 166.924 8.4772 165.291C8.30918 163.889 8.164 162.467 8.19254 161.059C8.31146 155.234 8.48227 149.411 8.65308 143.588L8.65309 143.587L8.68192 142.604C8.74041 140.598 8.81456 138.595 8.88875 136.592C8.9294 135.494 8.97006 134.396 9.00817 133.297C9.08402 131.112 8.87196 128.946 8.58731 126.784C8.27084 124.386 8.29939 122.018 9.01959 119.673C9.3626 118.554 9.66463 117.422 9.96652 116.291L9.96656 116.291C10.2116 115.372 10.4566 114.454 10.7234 113.544C11.2503 111.74 11.0864 109.988 10.4706 108.254C10.1794 107.437 9.8662 106.619 9.52691 105.82C8.62972 103.695 8.66968 101.57 9.53343 99.4677C9.92402 98.5098 10.3752 97.5778 10.8841 96.6774C11.6296 95.3631 11.9632 93.9606 12.026 92.4682C12.1181 90.3889 11.8938 88.3276 11.5847 86.2843C10.6737 80.3082 10.2601 74.2665 10.3482 68.2216C10.4021 64.7006 11.6231 61.7509 14.0283 59.2515C16.1848 57.0096 18.8079 55.5041 21.7311 54.5111C26.1624 53.0015 30.6695 52.7293 35.2109 53.9005C41.5728 55.5425 45.8752 59.5229 48.1883 65.6699C49.2215 68.4279 49.7554 71.3484 49.7649 74.2943C49.7926 78.8141 49.7209 83.3355 49.6099 87.8536C49.5284 91.1188 49.3579 94.384 49.1507 97.6443C48.933 101.067 48.6092 104.484 47.8686 107.842C47.6689 108.745 47.42 109.636 47.1231 110.512C46.8168 111.39 46.3224 112.19 45.6745 112.856C45.0302 113.535 44.2757 113.873 43.3296 113.654C43.2766 113.642 43.2244 113.628 43.1665 113.62C41.0181 113.266 40.0516 113.763 39.1544 115.732C38.9966 116.077 38.8629 116.434 38.7291 116.791L38.729 116.791L38.729 116.792L38.729 116.792L38.7289 116.792L38.7289 116.792L38.7288 116.792L38.7288 116.792L38.7287 116.792L38.7287 116.792L38.7286 116.793L38.7286 116.793L38.7285 116.793C38.595 117.149 38.4614 117.506 38.3037 117.852C37.7328 119.114 37.0518 119.468 35.6986 119.203C35.2248 119.11 34.7639 118.921 34.3194 118.725C34.098 118.62 33.8533 118.572 33.6084 118.587C33.3636 118.602 33.1266 118.68 32.9198 118.812C32.4969 119.055 32.0884 119.323 31.6964 119.614C29.8904 121.014 28.2128 122.573 26.6836 124.273C25.9822 125.039 25.5114 125.988 25.3255 127.011C24.7358 130.082 24.6445 133.179 24.8476 136.285C24.9594 137.99 25.1094 139.693 25.2595 141.397L25.2596 141.397C25.3723 142.677 25.4851 143.957 25.5816 145.238C25.9079 149.64 26.0914 154.049 25.6355 158.454C25.4283 160.458 25.1689 162.467 24.4251 164.355C24.0695 165.255 23.6502 166.168 23.0867 166.95C21.9138 168.575 20.3331 168.96 18.4882 168.225C18.2372 168.124 17.9902 168.014 17.7433 167.905L17.7422 167.904C17.4438 167.771 17.1453 167.638 16.8398 167.523C16.6335 167.447 16.4127 167.411 16.1682 167.371C16.0609 167.354 15.9489 167.335 15.8317 167.313C14.6955 168.851 13.5708 170.372 12.3873 171.971ZM25.6681 75.9436C25.5865 76.3698 25.5442 76.8027 25.5417 77.2366C25.5368 79.8005 25.537 82.3644 25.5371 84.9283C25.5373 88.3969 25.5376 91.8654 25.5254 95.3337C25.5197 96.6406 25.9984 97.6336 27.0963 98.4305C29.0652 98.0505 30.3172 96.943 31.0553 95.2381C31.3995 94.4428 31.7331 93.6337 31.9606 92.8C32.994 89.0216 33.1123 85.1932 32.3929 81.3388C32.1629 80.1054 31.8269 78.9072 31.2967 77.7679C30.9264 76.9726 30.4525 76.2501 29.8001 75.6559C28.9241 74.859 27.889 74.6752 26.7676 74.8852C26.1885 74.9931 25.779 75.3454 25.6681 75.9436ZM143.136 140.438C143.054 139.011 142.783 137.627 142.147 136.338C141.348 134.718 140.085 133.872 138.224 133.99C137.233 134.053 136.291 134.242 135.403 134.695C134.158 135.329 133.206 136.28 132.424 137.419C131.379 138.953 130.61 140.658 130.152 142.458C129.667 144.326 129.253 146.209 128.84 148.093L128.84 148.094L128.84 148.096L128.84 148.096L128.839 148.097C128.728 148.603 128.617 149.108 128.505 149.613C127.892 152.377 127.29 155.141 126.698 157.908C126.475 158.945 125.925 159.555 124.702 159.505C124.489 159.053 124.264 158.574 124.038 158.095L124.234 157.914C124.282 157.68 124.342 157.447 124.401 157.215L124.401 157.215C124.528 156.715 124.655 156.217 124.673 155.715C124.805 152.067 124.918 148.414 124.5 144.777C124.365 143.595 124.19 142.369 123.748 141.279C122.242 137.573 118.35 136.161 115.03 139.058C113.38 140.494 112.257 142.274 111.912 144.464C111.727 145.644 111.575 146.844 111.569 148.036C111.557 150.238 111.596 152.44 111.634 154.641C111.647 155.382 111.66 156.123 111.671 156.863C111.685 157.761 111.706 158.659 111.728 159.557V159.558V159.558V159.558V159.558V159.558V159.559V159.559V159.559V159.559V159.559V159.56V159.56C111.775 161.493 111.822 163.426 111.783 165.357C111.747 167.372 111.572 169.381 111.259 171.371C110.932 173.429 110.481 175.465 110.031 177.5L110.031 177.501C109.928 177.964 109.826 178.427 109.725 178.891L109.7 179.004L109.65 179.231L109.602 179.448L109.57 179.593C109.528 179.779 109.487 179.966 109.445 180.152L109.445 180.152C108.863 182.761 108.28 185.372 108.21 188.06C108.173 189.578 108.185 191.096 108.198 192.614C108.203 193.221 108.208 193.828 108.21 194.435C108.214 196.342 108.026 198.245 107.65 200.114C107.183 202.452 106.76 204.799 106.337 207.146L106.337 207.146L106.337 207.146L106.337 207.146L106.337 207.146L106.337 207.147L106.337 207.147L106.337 207.147L106.337 207.147L106.337 207.148L106.337 207.148L106.337 207.148L106.158 208.14C105.957 209.269 105.993 210.428 106.265 211.542C106.926 214.335 106.813 217.166 106.538 219.993C106.491 220.481 106.415 220.967 106.34 221.452C106.248 222.044 106.157 222.636 106.115 223.231C106.019 224.534 105.995 225.841 106.042 227.146C106.079 228.045 106.205 228.978 106.827 229.68C106.851 229.679 106.872 229.678 106.893 229.677L106.924 229.677L106.968 229.676L107.009 229.676C107.101 229.675 107.171 229.675 107.235 229.658C108.45 229.347 109.34 228.552 110.146 227.653C111.315 226.345 112.234 224.865 113.05 223.321C115.029 219.561 116.878 215.746 118.146 211.67C118.501 210.526 118.969 209.413 119.432 208.309L119.432 208.308L119.432 208.308L119.554 208.018C119.895 207.207 120.395 206.491 121.103 205.946L121.124 205.93C121.374 205.738 121.632 205.54 122.133 205.77C122.175 205.882 122.224 206.003 122.276 206.131C122.403 206.442 122.547 206.794 122.633 207.159C122.877 208.222 123.102 209.284 123.274 210.358C123.403 211.164 123.512 211.972 123.621 212.78L123.621 212.781L123.621 212.781L123.621 212.781L123.621 212.781L123.621 212.781L123.621 212.781L123.621 212.781L123.621 212.782L123.621 212.782L123.621 212.782L123.621 212.782C123.723 213.538 123.825 214.294 123.943 215.046C124.235 216.886 124.731 218.664 125.605 220.319C126.834 222.651 128.652 224.369 130.988 225.564C134.175 223.902 136.139 221.338 137.199 218.036C137.886 215.892 138.154 213.67 138.161 211.432C138.164 210.238 138.099 209.044 138.035 207.85V207.85V207.849V207.849V207.849V207.849V207.848V207.848V207.848V207.847V207.847V207.847C137.999 207.193 137.964 206.539 137.939 205.884C137.79 201.884 136.688 198.162 134.691 194.707C134.28 193.993 133.848 193.292 133.417 192.591L133.416 192.591L133.416 192.59L133.415 192.589L133.415 192.589L133.415 192.588L133.414 192.587L133.414 192.586L133.413 192.586L133.413 192.585L133.412 192.584L133.412 192.584C132.989 191.896 132.566 191.209 132.162 190.511C131.561 189.477 130.959 188.436 130.469 187.348C129.519 185.247 129.257 183.064 129.975 180.824C130.139 180.31 130.301 179.796 130.462 179.281C130.92 177.822 131.377 176.365 131.901 174.931C133.641 170.166 135.628 165.501 137.616 160.838L137.617 160.835L137.618 160.833L137.619 160.83L137.62 160.828L137.621 160.825L137.622 160.823L137.623 160.82L137.624 160.818L137.625 160.815C138.195 159.479 138.764 158.142 139.328 156.803C139.431 156.559 139.534 156.314 139.637 156.07L139.638 156.07L139.638 156.069L139.638 156.069L139.638 156.068L139.638 156.068L139.638 156.068L139.638 156.067L139.639 156.067C140.319 154.457 141 152.846 141.577 151.2C142.796 147.724 143.348 144.132 143.136 140.438ZM115.161 47.3955C116.088 44.3298 117.952 42.5006 121.867 42.2121C122.101 42.195 122.338 42.1983 122.574 42.2017L122.682 42.2031C124.288 42.2137 125.483 42.9387 126.314 44.2987C126.877 45.2352 127.25 46.2732 127.412 47.3538C127.606 48.535 127.73 49.7265 127.785 50.9222C127.919 54.0281 127.638 57.1241 127.296 60.2103C127.267 60.4646 127.238 60.719 127.21 60.9734L127.209 60.9748C127.098 61.964 126.986 62.9534 126.888 63.9438C126.858 64.1726 126.863 64.3982 126.869 64.6492V64.6494C126.871 64.7569 126.874 64.8692 126.874 64.9883C127.652 65.1812 128.231 65.1256 128.774 65.0643C128.815 64.9782 128.854 64.9051 128.89 64.84C128.955 64.7197 129.006 64.6262 129.023 64.5265C129.457 62.0484 130.247 59.6716 131.139 57.3341C132.149 54.6925 133.224 52.0755 134.32 49.4699C135.025 47.8156 135.911 46.2449 136.962 44.7866C137.63 43.8524 138.374 42.9836 139.306 42.3053C141.071 41.0204 142.921 41.1496 144.45 42.6918C144.911 43.1535 145.315 43.6701 145.65 44.23C147.385 47.156 148.044 50.2692 147.216 53.6341C146.773 55.4893 146.116 57.2864 145.258 58.9892C144.217 61.0227 143.127 63.0303 141.988 65.012C141.266 66.2769 140.519 67.5285 139.772 68.7799L139.772 68.7805L139.772 68.7811L139.771 68.7817L139.771 68.7823L139.77 68.7829L139.77 68.7835L139.77 68.7841L139.769 68.7847L139.769 68.7853L139.769 68.7859L139.768 68.786L139.768 68.7861L139.768 68.7863L139.768 68.7864L139.768 68.7866L139.768 68.7867L139.768 68.7868L139.768 68.787L139.768 68.7871L139.768 68.7872C139.066 69.9634 138.364 71.1394 137.683 72.3262C136.328 74.6874 135.068 77.1034 134.224 79.7033C133.884 80.7534 133.632 81.8335 133.381 82.9117L133.38 82.9128L133.38 82.9139L133.322 83.1615L133.284 83.3254L133.246 83.4883C132.82 85.2864 133.021 87.0436 133.631 88.7845C134.663 91.7212 136.018 94.5058 137.436 97.2642C138.431 99.1996 139.419 101.139 140.342 103.109C140.751 103.977 141.068 104.891 141.384 105.8C141.443 105.97 141.502 106.14 141.561 106.309C142.306 108.434 142.311 110.579 141.666 112.731C141.542 113.145 141.413 113.558 141.284 113.97C141.023 114.804 140.762 115.638 140.544 116.483C140.072 118.327 139.654 120.184 139.246 122.041C138.944 123.431 138.571 124.793 137.941 126.066C137.611 126.751 137.214 127.402 136.755 128.008C136.393 128.484 135.942 128.885 135.427 129.188C134.089 129.941 133.193 129.936 132.149 128.616C131.745 128.103 131.395 127.55 131.104 126.966C129.831 124.424 128.851 121.765 128.429 118.948C128.275 117.925 128.259 116.882 128.243 115.839C128.238 115.465 128.232 115.09 128.22 114.717C128.205 114.224 128.207 113.73 128.209 113.236C128.211 112.586 128.214 111.935 128.179 111.284C128.11 109.996 127.65 108.844 126.705 107.927C126.608 107.829 126.488 107.753 126.356 107.669C126.29 107.627 126.221 107.584 126.151 107.535C125.35 107.938 124.919 108.626 124.579 109.361C124.216 110.153 123.896 110.963 123.62 111.788C122.866 114.005 121.969 116.161 121.022 118.304C120.548 119.372 120.206 120.5 119.865 121.623L119.763 121.957C119.728 122.074 119.692 122.192 119.656 122.308C119.505 122.799 119.386 123.299 119.268 123.8L119.268 123.8L119.268 123.8L119.268 123.8L119.267 123.8L119.267 123.8L119.267 123.8L119.267 123.801L119.267 123.801L119.267 123.801L119.267 123.801L119.267 123.801C119.16 124.254 119.053 124.706 118.922 125.151C118.392 126.93 117.394 128.393 115.85 129.446C114.953 130.058 114.051 130.672 113.11 131.21C112.635 131.47 112.119 131.645 111.584 131.728C110.813 131.858 110.292 131.579 110.022 130.863C109.784 130.257 109.638 129.619 109.587 128.97C109.522 127.919 109.533 126.861 109.544 125.805V125.805V125.804V125.803V125.803L109.546 125.586L109.548 125.379C109.554 124.659 109.57 123.939 109.586 123.218V123.218V123.218V123.218V123.217V123.217V123.217V123.217V123.217V123.216V123.216C109.614 121.922 109.642 120.629 109.616 119.336C109.593 118.148 109.491 116.932 109.22 115.777C108.761 113.826 108.752 111.875 109.04 109.934C109.529 106.597 110.116 103.273 110.715 99.9532C111.078 97.9378 111.46 95.9257 111.842 93.9136L111.842 93.9127L111.842 93.9118L111.843 93.9109L111.843 93.91L111.843 93.9091L111.843 93.9082L111.843 93.9073L111.843 93.9064L111.844 93.9056L111.844 93.9047C112.222 91.9108 112.601 89.9169 112.961 87.9198C113.339 85.8283 113.545 83.7122 113.489 81.5823C113.413 78.6882 113.696 75.8178 113.99 72.9457C114.079 72.0802 114.146 71.2081 114.154 70.3385C114.166 68.6121 114.17 66.8856 114.173 65.1591C114.179 62.7471 114.184 60.3351 114.213 57.9234C114.241 55.5842 114.316 53.2418 114.485 50.91C114.582 49.7173 114.808 48.5387 115.161 47.3955ZM236.87 29.4709C236.054 25.7839 233.852 23.0296 230.923 20.6782C228.982 21.1121 227.371 21.8796 225.838 22.8195L225.651 22.9353L225.651 22.9353C224.695 23.5258 223.74 24.1162 222.828 24.7729C220.995 26.097 218.97 26.4313 216.787 26.1043C216.69 26.0899 216.593 26.0719 216.497 26.0538C216.379 26.0319 216.262 26.01 216.145 25.9948C213.762 25.6597 211.496 24.8955 209.242 24.1019L209.088 24.0479L208.779 23.939C207.653 23.5421 206.525 23.1447 205.378 22.822C204.656 22.6193 203.884 22.549 203.131 22.5122C201.826 22.4485 200.789 23.0467 200.129 24.1419C199.66 24.9371 199.28 25.7816 198.995 26.6601C198.424 28.3724 198.212 30.1648 198.027 31.9522C197.656 35.5346 197.588 39.1308 197.65 42.727C197.666 43.6711 197.748 44.6143 197.829 45.5573L197.829 45.5578C197.855 45.8628 197.882 46.1678 197.906 46.4727C197.949 47.0218 198.007 47.5707 198.064 48.1195C198.177 49.1981 198.29 50.2766 198.299 51.3562C198.336 56.4236 198.325 61.491 198.265 66.5583C198.241 68.5199 198.097 70.4815 197.904 72.4292C197.268 78.8803 196.306 85.288 195.251 91.6819C194.549 95.9286 194.176 100.223 194.136 104.528C194.121 104.909 194.13 105.291 194.162 105.672C194.298 106.847 194.896 107.453 196.064 107.507C196.654 107.533 197.277 107.507 197.838 107.343C199.557 106.842 201.269 106.308 202.954 105.709C204.344 105.215 205.724 104.697 207.104 104.178L207.104 104.178L207.105 104.178L207.105 104.178L207.106 104.178L207.106 104.177L207.107 104.177L207.107 104.177L207.108 104.177L207.109 104.177L207.11 104.176C208.321 103.721 209.532 103.267 210.749 102.829C212.711 102.122 214.739 101.861 216.834 101.904C219.897 101.968 222.889 102.362 225.82 103.289C228.578 104.161 230.515 103.178 231.467 100.457C231.878 99.2739 232.215 98.0669 232.477 96.8425C233.046 94.2069 232.946 91.535 232.847 88.8702L232.847 88.8671C232.834 88.5397 232.822 88.2125 232.811 87.8855C232.77 86.6595 232.159 85.597 231.314 84.6979C229.178 82.4315 224.544 81.6125 221.938 84.9366C221.567 85.4081 221.224 85.9038 220.881 86.3993L220.88 86.3995L220.88 86.3998L220.88 86.4L220.88 86.4003L220.88 86.4006L220.879 86.4008L220.879 86.4011L220.879 86.4013L220.879 86.4017L220.879 86.4019L220.878 86.4021L220.878 86.4023L220.878 86.4025L220.878 86.4027L220.878 86.4028L220.878 86.403L220.878 86.4032L220.878 86.4034C220.601 86.8022 220.325 87.201 220.034 87.5872L219.95 87.6993L219.95 87.6995C219.421 88.3985 218.889 89.103 218.274 89.7236C217.386 90.6178 216.262 90.997 214.995 90.8385C213.459 90.6456 212.182 89.9639 211.367 88.6219C210.947 87.9321 210.551 87.1801 210.368 86.4037C210.062 85.0845 209.804 83.7286 209.758 82.38C209.629 78.7021 210.253 75.1108 211.394 71.6151C211.519 71.2355 211.688 70.8703 211.859 70.502C211.938 70.3311 212.017 70.1595 212.093 69.9854C213.153 69.9142 214.218 69.9438 215.274 70.0736C216.058 70.1622 216.841 70.254 217.624 70.3458C218.946 70.5006 220.267 70.6555 221.59 70.7945C222.238 70.8646 222.892 70.878 223.542 70.8346C224.95 70.7348 225.859 69.9625 226.224 68.6025C226.404 67.9736 226.519 67.3282 226.569 66.676C226.711 64.2797 226.732 61.8792 226.283 59.509C226.164 58.8674 225.966 58.2431 225.694 57.6504C225.109 56.4015 224.201 55.9937 222.885 56.4105C222.216 56.6234 221.575 56.9331 220.937 57.2411C220.84 57.2878 220.744 57.3344 220.647 57.3807C220.091 57.6474 219.541 57.9257 218.992 58.204C218.475 58.4654 217.959 58.7267 217.437 58.9785C216.54 59.4117 215.583 59.5605 214.591 59.5834C213.929 59.5981 213.427 59.3496 213.046 58.8404C212.784 58.494 212.545 58.1303 212.331 57.7517C211.581 56.4007 211.195 54.9369 210.97 53.415C210.61 50.9803 210.603 48.5283 210.668 46.0763C210.744 43.201 211.367 40.4826 213.027 37.9906H216.192L217.823 40.633C218.547 40.7677 219.211 40.6008 219.859 40.4378L219.944 40.4164C220.822 40.1963 221.452 39.6088 222.1 39.0038C222.474 38.654 222.855 38.2983 223.294 38.0045C223.436 38.0891 223.578 38.1741 223.721 38.2592L223.721 38.2598L223.722 38.26L223.722 38.2601L223.722 38.2603L223.723 38.2605C224.177 38.5328 224.633 38.8058 225.096 39.067C226.201 39.689 227.351 40.114 228.754 39.8574C229.08 38.49 229.978 37.5141 230.989 36.6101C231.124 36.6444 231.256 36.6781 231.386 36.7113L231.386 36.7114L231.387 36.7117C231.877 36.8368 232.334 36.9536 232.788 37.0556C233.158 37.1418 233.532 37.204 233.91 37.2419C235.09 37.3474 235.882 36.79 236.365 35.7413C236.459 35.5445 236.535 35.3396 236.592 35.1292C237.06 33.2649 237.291 31.372 236.87 29.4709ZM183.358 93.3623C184.305 92.6245 185.385 92.0764 186.539 91.7481C188.684 91.1596 190.188 91.9116 190.821 94.0717C191.129 95.1148 191.278 96.1985 191.264 97.2863C191.21 100.511 190.437 103.683 189.003 106.57C188.678 107.197 188.306 107.798 187.891 108.368C187.059 109.568 185.896 110.187 184.437 110.211C183.785 110.227 183.133 110.209 182.483 110.158C181.423 110.067 180.679 110.526 180.271 111.466C179.932 112.259 179.67 113.087 179.41 113.912L179.409 113.912L179.358 114.076C179.235 114.494 179.148 114.921 179.098 115.354C178.969 116.299 178.389 116.792 177.506 116.967C177.258 117.017 177.003 117.033 176.719 117.051C176.581 117.06 176.437 117.069 176.283 117.083C176.24 116.989 176.195 116.895 176.15 116.801C176.037 116.567 175.923 116.331 175.839 116.089C175.727 115.764 175.625 115.435 175.523 115.106L175.522 115.106C175.399 114.707 175.275 114.309 175.133 113.917C174.982 113.508 174.791 113.116 174.562 112.745C173.703 111.332 172.816 111.123 171.463 112.057C171.013 112.367 170.6 112.733 170.187 113.098L170.185 113.1C170.067 113.204 169.95 113.308 169.831 113.411C169.573 113.637 169.321 113.869 169.068 114.101L169.068 114.101C168.72 114.422 168.371 114.742 168.008 115.046C167.017 115.863 166.229 115.857 165.264 115.051C165.179 114.978 165.105 114.892 165.031 114.806C164.963 114.727 164.894 114.647 164.816 114.577C164.164 113.984 163.399 113.587 162.571 113.287C162.317 113.187 162.043 113.15 161.772 113.18C161.501 113.209 161.241 113.303 161.014 113.455C160.815 113.583 160.629 113.729 160.442 113.875C160.372 113.93 160.302 113.985 160.231 114.04C159.219 114.814 158.094 115.016 156.847 114.806C156.605 114.765 156.365 114.71 156.123 114.655C155.408 114.492 154.68 114.326 153.87 114.495C153.798 114.587 153.723 114.683 153.645 114.782L153.644 114.783C153.475 114.999 153.293 115.23 153.117 115.465C153.037 115.572 152.956 115.679 152.876 115.785L152.76 115.938L152.635 116.104L152.509 116.27L152.505 116.275C151.953 117.002 151.401 117.73 150.881 118.48C150.128 119.588 149.086 119.973 147.681 119.892C147.197 118.805 147.052 117.598 147.265 116.427C147.56 114.711 147.863 112.994 148.252 111.302C148.323 110.994 148.394 110.687 148.465 110.379C149.237 107.029 150.01 103.68 150.492 100.268C150.9 97.3492 151.079 94.4207 151.132 91.4784L151.148 90.555C151.196 87.757 151.244 84.9598 151.376 82.17C151.528 78.9612 151.866 75.7679 152.588 72.6261C153.021 70.7586 153.603 68.9482 154.561 67.2866C155.631 65.4378 156.02 63.4811 156.015 61.3512C156.006 57.4281 155.981 53.5197 155.458 49.6161C155.042 46.5103 155.369 43.4151 156.237 40.4017C156.524 39.4088 156.906 38.4464 157.379 37.528C158.983 34.4287 161.547 32.7164 165.036 32.4958C166.939 32.3859 168.847 32.5852 170.686 33.0859C170.894 33.1485 171.098 33.2219 171.299 33.3057C173.735 34.2457 174.789 35.9154 174.582 38.4957C174.464 39.8529 174.138 41.1839 173.616 42.4417C172.882 44.2537 172.101 46.0518 171.321 47.8499C170.711 49.2475 170.172 50.6754 169.928 52.1899L169.89 52.4262L169.849 52.6801C169.631 54.0278 169.414 55.3638 169.285 56.7154C169.006 59.6086 168.758 62.5053 168.509 65.402L168.509 65.4033L168.509 65.4046C168.413 66.5207 168.317 67.6369 168.22 68.7529C167.883 72.6041 167.393 76.4356 166.793 80.255C166.63 81.2944 166.458 82.3327 166.286 83.371L166.286 83.3715L166.286 83.372L166.286 83.3725L166.286 83.3729L166.286 83.3734L166.286 83.3739L166.286 83.3744L166.285 83.3749L166.285 83.3754C165.703 86.8996 165.12 90.4239 164.85 93.9917C164.785 94.7495 164.798 95.5121 164.891 96.2671C165.091 97.7775 165.667 98.218 167.212 98.0946C167.916 98.0408 168.613 97.9171 169.292 97.7252C171.112 97.2005 172.939 97.2552 174.782 97.5552C177.718 98.0328 177.891 97.8853 179.368 96.6243C179.539 96.4784 179.727 96.3177 179.939 96.1412C180.09 96.016 180.24 95.8906 180.391 95.7653L180.391 95.7652L180.391 95.7651L180.391 95.765L180.391 95.7649L180.391 95.7648L180.391 95.7647L180.391 95.7646L180.391 95.7646C181.369 94.9498 182.346 94.1349 183.358 93.3623ZM79.6656 82.304C78.7684 83.5627 78.2995 85.0224 77.9732 86.5205C77.4617 88.862 77.1291 91.2391 76.9781 93.6312C76.7538 97.2724 76.532 100.918 76.4684 104.564C76.3648 110.502 76.51 116.439 77.3109 122.336C77.5556 124.113 77.921 125.876 78.2897 127.632C78.5857 129.043 79.2056 130.304 80.2888 131.301C81.9363 132.819 83.371 134.527 84.6532 136.36C85.4076 137.439 86.379 138.096 87.684 138.372C89.4946 138.74 91.2533 139.328 92.9212 140.124C94.3575 140.822 95.9447 140.886 97.4658 140.765C97.5145 140.703 97.559 140.655 97.5971 140.614C97.66 140.546 97.7052 140.497 97.7219 140.438C98.3206 138.339 99.5114 136.608 101.028 135.077C101.182 134.921 101.325 134.756 101.468 134.59L101.468 134.59C101.538 134.508 101.608 134.427 101.68 134.346C102.713 133.202 103.204 131.849 103.223 130.321C103.233 129.461 103.245 128.6 103.258 127.74L103.258 127.735C103.297 125.004 103.336 122.271 103.32 119.537C103.31 117.963 103.146 116.384 102.957 114.819C102.794 113.468 102.501 112.127 101.767 110.944C100.788 109.362 99.0865 109.146 97.7815 110.467C97.5013 110.751 97.2741 111.088 97.0469 111.425C96.9381 111.587 96.8293 111.748 96.7146 111.904C96.5806 112.086 96.4504 112.272 96.3202 112.458L96.3202 112.459L96.3201 112.459L96.3201 112.459L96.32 112.459L96.32 112.459C96.013 112.898 95.7059 113.337 95.3468 113.727C94.6829 114.449 93.886 115 92.7442 115.057C92.6525 114.833 92.5585 114.611 92.4651 114.392C92.2587 113.906 92.0554 113.428 91.887 112.937C91.1113 110.649 90.7451 108.284 90.6178 105.886C90.3302 100.824 90.6633 95.7462 91.6096 90.7657C92.1871 87.7473 93.0778 84.8614 94.8395 82.2868C95.9496 80.6636 96.7293 78.8639 97.3818 77.0045C97.6738 76.1275 98.0262 75.2719 98.4364 74.4438C98.9959 73.356 99.4918 73.1827 100.7 73.4459C101.377 73.5932 102.058 73.7387 102.798 73.897L102.802 73.8978C103.153 73.9729 103.518 74.0508 103.902 74.1333C103.989 73.9049 104.073 73.6957 104.153 73.4985L104.154 73.4974L104.154 73.4972C104.332 73.0541 104.487 72.6719 104.591 72.2706C104.846 71.3274 105.056 70.3687 105.253 69.41C105.661 67.4174 106.294 65.522 107.634 63.9339C108.097 63.3898 108.387 62.7191 108.466 62.0083C108.747 59.4616 108.981 56.9066 108.509 54.3574C108.259 53.0072 107.785 51.7338 106.954 50.6206C105.37 48.4956 103.276 48.1474 101.134 49.6791C100.704 49.9866 100.314 50.3514 99.9249 50.7158L99.9248 50.7159C99.7967 50.8358 99.6686 50.9557 99.5392 51.0734C99.259 51.3282 98.9837 51.5885 98.7085 51.8488L98.7084 51.8488L98.7083 51.8489L98.7083 51.849L98.7082 51.849L98.7081 51.8491L98.7081 51.8492L98.708 51.8493C98.2319 52.2994 97.7561 52.7494 97.2554 53.1699C95.7547 54.431 94.006 55.1118 92.0533 55.2802C91.6203 55.3177 91.1898 55.3808 90.7594 55.4438L90.7593 55.4439L90.7593 55.4439L90.7592 55.4439L90.7591 55.4439L90.7591 55.4439L90.759 55.4439L90.7588 55.444C90.5984 55.4674 90.4381 55.4909 90.2777 55.5131C89.0086 55.6815 88.0356 56.3533 87.3562 57.3979C86.8545 58.1678 86.3725 58.9826 86.0732 59.8449C85.468 61.5915 84.8815 63.3594 84.4892 65.1575C84.0405 67.2209 83.6721 69.3014 83.3039 71.381L83.3038 71.3812L83.3038 71.3814L83.3038 71.3816L83.3037 71.3818L83.3037 71.382L83.3036 71.3822L83.3036 71.3824C83.1499 72.2504 82.9962 73.1182 82.8368 73.9845C82.2895 76.9506 81.451 79.8005 79.6656 82.304ZM56.1577 156.087C55.7728 157.488 54.6913 158.151 53.3357 158.776C52.4214 156.799 52.0715 154.875 51.8292 152.933C51.087 146.966 51.0837 140.984 51.5103 134.997C51.6384 133.198 52.0861 131.452 52.6351 129.74L52.6391 129.728C53.0529 128.437 53.4688 127.141 54.0078 125.899C55.3739 122.753 55.5795 119.491 55.2703 116.133C55.0485 113.695 54.8832 111.251 54.7744 108.802C54.6252 105.35 55.2263 101.97 55.8845 98.5997C56.3429 96.2508 56.7947 93.8985 57.1724 91.5365C57.5696 89.0534 57.5884 86.5508 57.3787 84.0425C57.2597 82.6097 56.8673 81.2456 56.0003 80.0825C55.0412 78.7953 54.728 77.3707 54.7451 75.7892C54.7875 71.9232 54.772 68.0565 54.7541 64.1898C54.7426 61.858 55.3519 59.6716 56.2173 57.5392C56.4669 56.9254 56.8298 56.3885 57.3779 55.9929C59.2318 54.6541 61.2521 53.8262 63.5856 53.8899C65.2495 53.9357 66.6361 54.5838 67.7779 55.7771C68.6564 56.695 69.251 57.7902 69.7224 58.9606C70.379 60.5887 70.7281 62.2944 70.963 64.0214C71.1261 65.2073 71.2598 66.4063 71.2647 67.6004C71.2762 70.7798 71.8463 73.8775 72.5232 76.9669C72.989 79.092 73.431 81.226 73.7467 83.3763C73.9312 84.6291 73.9649 85.9008 73.9985 87.1688C74.0038 87.3691 74.0091 87.5694 74.015 87.7694C74.0558 89.1433 73.5256 90.317 72.5298 91.2684C72.4948 91.3006 72.4623 91.3352 72.43 91.3695C72.3871 91.4152 72.3447 91.4602 72.2981 91.498C70.6073 92.8679 70.0804 94.6856 70.3757 96.7608C70.5812 98.2107 70.9075 99.6451 71.2337 101.075C71.4799 102.165 71.7488 103.249 72.0178 104.333C72.1677 104.938 72.3177 105.542 72.4637 106.148C72.4968 106.286 72.5188 106.427 72.5408 106.568V106.568C72.5523 106.643 72.5639 106.717 72.5771 106.791C72.8348 108.257 72.6725 109.598 71.5168 110.69C71.2942 110.901 71.1174 111.16 70.9409 111.42L70.9409 111.42C70.8703 111.523 70.7998 111.627 70.7264 111.728C69.5911 113.28 69.1351 115.011 69.2118 116.944C69.3374 120.114 69.8268 123.226 70.4956 126.315C71.1316 129.299 71.4036 132.35 71.3055 135.4C71.2541 137.247 70.8112 138.928 69.7142 140.447C67.9264 142.92 66.424 145.572 64.9746 148.255C64.4037 149.307 63.7716 150.323 63.1191 151.327C62.5979 152.132 61.9014 152.656 60.8745 152.763C59.6649 152.889 58.6046 153.463 57.6259 154.186C56.9571 154.682 56.3926 155.255 56.1577 156.087ZM75.6783 187.213L75.6784 187.212L75.6784 187.211L75.6785 187.21L75.6785 187.21L75.6786 187.209L75.6786 187.208C75.7303 186.242 75.782 185.276 75.8232 184.31C75.8537 183.605 75.8872 182.899 75.9206 182.194L75.9207 182.192L75.9208 182.191L75.9209 182.189L75.9209 182.187L75.921 182.186C76.0293 179.901 76.1376 177.617 76.1494 175.331C76.1641 172.431 75.7489 169.577 74.6438 166.861C73.9162 165.072 72.9244 163.457 71.4947 162.15C69.6187 160.426 67.428 159.488 64.8416 159.534C60.465 159.616 57.4806 162.61 57.523 167.002C57.5402 168.8 57.638 170.598 57.8126 172.386C57.9806 174.107 58.1822 175.826 58.3837 177.544C58.5501 178.962 58.7164 180.38 58.8639 181.8C59.1396 184.46 59.2391 187.139 58.8949 189.791C58.5442 192.488 58.0459 195.168 57.5377 197.84C57.3945 198.591 57.2472 199.341 57.0999 200.091C56.492 203.186 55.8844 206.28 55.568 209.425C55.4196 210.896 55.382 212.357 55.6014 213.824C55.7977 215.132 55.983 216.442 56.1682 217.752L56.1684 217.753L56.1685 217.754L56.1687 217.755L56.1689 217.756L56.169 217.757L56.2311 218.196L56.3216 218.835C56.5989 220.796 56.5663 222.688 55.8885 224.618C55.0957 226.871 54.5322 229.21 53.9726 231.536C53.0657 235.306 52.5274 239.137 52.5763 243.02C52.6154 246.027 52.9988 248.994 54.0836 251.83C54.2124 252.167 54.3601 252.497 54.5126 252.838C54.5841 252.997 54.6566 253.159 54.7287 253.326C55.9358 253.183 56.9072 252.74 57.8281 252.162L58.021 252.041C58.7838 251.56 59.5474 251.078 60.3214 250.614C61.5449 249.879 62.8556 249.33 64.2788 249.189C65.2576 249.093 65.875 248.589 66.3497 247.808C66.5764 247.436 66.8016 247.062 67.0128 246.682C67.5686 245.682 68.1208 244.679 68.673 243.677L68.6731 243.677L68.6732 243.676L68.6734 243.676L68.6735 243.676L68.6736 243.676C69.9852 241.294 71.297 238.913 72.6577 236.56C73.7637 234.648 74.2776 232.664 74.0329 230.468C73.8833 229.115 73.7417 227.761 73.6001 226.408L73.6 226.407L73.5999 226.406L73.5998 226.405L73.5997 226.404L73.5996 226.403L73.5996 226.403C73.3505 224.022 73.1015 221.641 72.8094 219.266C72.5509 217.162 72.723 215.141 73.4668 213.163C73.5339 212.984 73.6 212.806 73.666 212.627C73.7508 212.397 73.8356 212.167 73.9228 211.937C74.5629 210.252 74.8257 208.447 74.6927 206.648C74.5719 204.826 74.4776 203.001 74.3832 201.177L74.3832 201.176L74.3832 201.176L74.3832 201.175L74.3831 201.175L74.3831 201.174C74.3284 200.117 74.2738 199.06 74.2139 198.003C74.165 197.124 74.1683 196.242 74.5606 195.439C75.3207 193.876 75.448 192.205 75.5173 190.511C75.5607 189.411 75.6195 188.312 75.6783 187.213ZM97.6142 172.188C97.5523 172.339 97.5032 172.495 97.4674 172.654C97.1322 174.633 96.1901 176.359 95.1307 178.003C94.3452 179.214 94.0777 180.46 94.253 181.871C94.4398 183.383 94.5695 184.904 94.6772 186.425C94.7693 187.723 94.8542 189.031 94.8403 190.339C94.8158 192.157 94.2449 193.765 92.7286 194.909C91.9465 195.499 91.5525 196.327 91.3421 197.247C91.1847 197.935 91.033 198.636 90.9954 199.339C90.8715 201.677 90.7638 204.017 90.7198 206.358C90.6814 208.429 91.2238 210.344 92.5141 212.005L92.8404 212.421C94.7905 212.025 95.8794 210.93 96.4544 209.258C96.6624 208.639 96.8736 208.023 97.1069 207.413C97.4274 206.6 97.9323 205.873 98.5816 205.288C98.9502 204.95 99.3434 204.897 99.7765 205.114C100.631 205.541 101.259 206.205 101.727 207.028C102.466 208.328 102.788 209.752 103.013 211.216C103.492 214.375 103.243 217.524 102.868 220.662C102.663 222.389 102.322 224.102 101.979 225.811C101.665 227.377 101.094 228.822 99.9184 229.993C99.0921 230.81 98.6949 231.908 98.3687 233.017C98.2175 233.53 98.0727 234.04 97.9285 234.548L97.9284 234.549L97.9284 234.549L97.9283 234.549L97.9283 234.549C97.7614 235.137 97.5951 235.723 97.4201 236.31C97.3586 236.511 97.2674 236.703 97.1659 236.917L97.1656 236.917L97.1648 236.919C97.1117 237.03 97.0559 237.148 97.0001 237.276C95.7114 236.883 94.5654 236.281 93.4994 235.572C91.9938 234.566 90.4 233.793 88.6497 233.313C87.2803 232.937 86.0169 232.299 84.8334 231.507C83.2486 230.445 81.7405 229.294 80.3646 227.964C78.8965 226.542 78.2831 224.831 78.4634 222.8C78.6499 220.685 78.8152 218.568 78.9593 216.45C79.1102 214.2 78.9527 212.003 78.1045 209.868C77.5743 208.532 77.5205 207.095 77.7473 205.677C78.1608 203.087 78.3027 200.482 78.2652 197.862C78.217 194.47 78.7121 191.129 79.2717 187.799C79.5433 186.185 80.1313 184.656 80.7447 183.141C82.1312 179.708 83.5105 176.275 84.5626 172.722C85.4794 169.622 86.0397 166.48 86.0095 163.235C85.994 161.547 86.0144 159.85 86.41 158.196C86.5873 157.401 86.8357 156.624 87.1522 155.874C87.3553 155.394 87.6702 154.97 88.0705 154.638C88.4709 154.305 88.945 154.074 89.4531 153.962C89.8748 153.862 90.2997 153.772 90.7271 153.698C91.0876 153.637 91.4494 153.583 91.8114 153.528C92.0938 153.486 92.3764 153.443 92.6585 153.398C94.3844 153.118 95.8345 152.316 97.0245 151.044C97.3031 150.744 97.5717 150.437 97.8402 150.131C98.1087 149.824 98.3773 149.518 98.6558 149.218C98.7758 149.09 98.8954 148.961 99.0151 148.832L99.018 148.829C99.5263 148.281 100.037 147.73 100.596 147.238C101.124 146.77 101.711 146.373 102.342 146.06C103.455 145.519 104.47 145.77 105.267 146.714C105.548 147.046 105.786 147.412 105.977 147.803C106.25 148.335 106.476 148.89 106.652 149.462C107.609 152.813 108.34 156.22 108.625 159.705C108.66 160.133 108.647 160.567 108.634 161.002L108.63 161.134C108.629 161.203 108.627 161.271 108.625 161.34C108.601 162.212 108.263 162.952 107.522 163.417C105.912 164.427 105.032 165.951 104.39 167.667C104.063 168.533 103.696 169.384 103.307 170.221C103.19 170.477 103.031 170.712 102.862 170.961C102.821 171.022 102.78 171.083 102.738 171.146C102.694 171.212 102.65 171.279 102.607 171.348C102.457 171.31 102.319 171.271 102.188 171.234L102.188 171.234C101.992 171.179 101.811 171.129 101.628 171.089C101.452 171.05 101.276 171.006 101.101 170.962C100.644 170.847 100.185 170.732 99.7243 170.717C98.7031 170.681 97.9625 171.184 97.6142 172.188ZM163.637 128.27C162.767 126.833 161.465 126.19 159.809 126.261C159.431 126.29 159.056 126.353 158.688 126.447C156.626 126.89 154.887 127.986 153.156 129.13C150.215 131.069 148.562 133.847 147.768 137.198C147.16 139.746 146.987 142.379 147.255 144.984C147.498 147.336 147.785 149.684 148.072 152.031L148.072 152.039L148.073 152.047L148.074 152.054C148.13 152.508 148.185 152.961 148.24 153.414C148.429 154.927 148.41 156.46 148.186 157.968C147.935 159.649 147.432 161.252 146.867 162.842C146.195 164.748 145.702 166.694 145.562 168.718C145.418 170.835 145.275 172.953 145.155 175.072C144.804 181.272 144.844 187.479 144.891 193.685C144.9 194.941 144.884 196.193 144.852 197.445C144.803 199.369 144.444 201.237 143.614 202.98C142.273 205.788 142.793 208.585 143.552 211.65C143.824 211.563 144.095 211.476 144.365 211.39L145.031 211.177C147.356 210.433 149.572 209.725 151.746 208.908C152.719 208.545 153.33 207.742 153.547 206.731C153.715 205.935 153.81 205.124 153.83 204.31C153.851 203.473 153.844 202.636 153.837 201.799C153.831 201.057 153.825 200.316 153.839 199.575C153.883 197.101 154.43 194.716 155.396 192.442C155.882 191.289 156.437 190.168 157.06 189.083C158.129 187.245 158.634 185.273 158.692 183.17C158.773 180.174 158.728 177.186 158.32 174.207C157.97 171.649 158.144 169.105 158.647 166.576C159.096 164.311 159.88 162.152 160.664 159.994L160.814 159.579L160.873 159.416C162.059 156.138 163.068 152.812 163.704 149.379C164.606 144.491 164.937 139.555 164.922 134.594C164.922 133.456 164.781 132.314 164.64 131.182C164.515 130.151 164.173 129.159 163.637 128.27ZM74.5452 50.8372C73.6871 51.1805 72.7459 51.2189 71.8112 51.0473C70.3928 50.7858 69.5462 49.9954 69.4581 48.5488C69.3858 47.4634 69.45 46.3733 69.649 45.304C69.8716 44.1575 70.1917 43.0294 70.5113 41.903L70.5113 41.9028C70.6225 41.5109 70.7337 41.1192 70.8406 40.727C71.0257 40.0446 71.2313 39.367 71.445 38.6927C71.9286 37.1733 72.179 35.6253 72.0918 34.0258C71.9825 31.9931 72.3267 30.0144 72.7818 28.0422C73.0387 26.929 73.2393 25.8035 73.3829 24.67C73.603 22.9881 73.4475 21.2782 72.9278 19.6639C72.2954 17.6876 72.0112 15.6161 72.0877 13.5422C72.157 11.5561 72.8519 9.80866 74.2956 8.42575C75.7392 7.04285 77.4455 6.57044 79.403 7.19978C80.7243 7.62478 81.6672 8.45845 82.2699 9.69178C82.7437 10.6762 83.0171 11.7454 83.0741 12.8368C83.1014 13.2537 83.095 13.6718 83.0886 14.0896V14.0897V14.0898C83.0859 14.2716 83.0831 14.4533 83.0831 14.6349C83.0969 17.7129 82.4151 20.6831 81.6411 23.6361C81.3507 24.7411 81.035 25.8428 80.6778 26.9266C80.3877 27.8072 80.273 28.7364 80.3401 29.6613C80.3815 30.2893 80.4237 30.9173 80.4659 31.5453C80.6319 34.0151 80.7979 36.4853 80.9111 38.9575C80.9863 40.3706 80.9525 41.7874 80.8099 43.1953C80.385 47.0776 78.0205 49.4478 74.5452 50.8372ZM151.249 217.144C150.486 214.549 148.25 213.719 146.048 215.297C144.229 216.6 142.938 218.351 142.501 220.594C142.212 222.084 141.992 223.589 141.771 225.095L141.771 225.096C141.716 225.475 141.66 225.855 141.603 226.234C141.567 226.478 141.576 226.731 141.586 227.013C141.591 227.154 141.596 227.302 141.596 227.46C143.89 227.802 146.582 227.223 148.234 226.088C149.51 225.21 150.247 223.976 150.592 222.491C150.703 222.014 150.785 221.529 150.859 221.046C150.865 221.01 150.87 220.975 150.875 220.94C150.88 220.902 150.885 220.865 150.891 220.828C150.964 220.312 151.036 219.802 151.381 219.354C151.528 219.167 151.554 218.837 151.528 218.584C151.478 218.096 151.385 217.614 151.249 217.144ZM92.6936 9.98273C92.1488 12.8867 90.6032 14.3848 87.5405 14.9569C87.5027 14.8831 87.4581 14.808 87.4123 14.7311C87.3063 14.5526 87.1944 14.3643 87.1482 14.1592C86.7454 12.5198 86.5641 10.8336 86.6091 9.1458C86.6253 8.59307 86.6409 8.04035 86.6564 7.49272C86.6758 6.80301 86.6951 6.12139 86.7151 5.45805C88.0201 4.06861 89.3047 2.80831 91.4922 3.46216C92.5093 5.47685 93.1357 7.63049 92.6936 9.98273Z" fill="#EBEDF0"/>
</svg>
