<svg width="60" height="72" viewBox="0 0 60 72" fill="none" xmlns="http://www.w3.org/2000/svg">
<path d="M59.9979 18.2302C59.9677 18.1432 59.9153 18.056 59.9115 17.9666C59.8976 17.6432 59.8172 17.3355 59.7122 17.0336C59.5664 16.6126 59.4262 16.1871 59.2575 15.774C58.4525 13.8017 57.4054 11.9589 56.2424 10.1784C55.4527 8.96986 54.5264 7.87536 53.5125 6.85418C52.0143 5.3447 50.2873 4.14933 48.3945 3.19764C44.0722 1.02398 39.4835 -0.0235583 34.6497 0.000401759C33.549 0.00591258 32.4525 0.0962421 31.3714 0.320748C30.7471 0.450133 30.1345 0.624083 29.5528 0.893394C29.1599 1.07525 28.793 1.2976 28.4886 1.6122C28.1886 1.92368 28.0079 2.28308 28.01 2.72514C28.01 2.85309 28.0069 2.9808 28.0045 3.1085C27.9832 4.18096 27.9718 4.19581 28.6592 5.18728L29.2044 5.97317C29.2668 6.06302 29.33 6.15191 29.3939 6.24296C29.5853 6.24296 29.7595 6.24991 29.9344 6.24296C30.9701 6.20295 32.0062 6.17228 33.041 6.11502C34.5385 6.03211 36.0355 5.97126 37.5351 6.04625C38.8415 6.10952 40.1361 6.32445 41.393 6.6867C42.9214 7.12877 44.328 7.83271 45.6862 8.64736C47.5209 9.74665 49.1686 11.07 50.5271 12.7326C51.7844 14.272 52.866 15.9216 53.6379 17.7642C53.865 18.3083 54.1191 18.8424 54.3797 19.3714C54.6214 19.8621 54.9397 20.3011 55.3608 20.6571C55.8662 21.0853 56.4432 21.328 57.1132 21.304C58.273 21.2614 59.1388 20.7089 59.7552 19.7445C59.8301 19.6273 59.8541 19.4783 59.9079 19.3465C59.9301 19.2914 59.9689 19.243 60 19.1915L59.9979 18.2302ZM58.576 18.499C58.5547 19.1699 58.2077 19.6455 57.6454 19.9606C57.2649 20.1748 56.8638 20.1312 56.5207 19.8648C56.3188 19.7092 56.1433 19.522 56.0012 19.3103C55.777 18.9615 55.5729 18.6003 55.3898 18.2283C55.0596 17.573 54.7518 16.9062 54.4259 16.2487C53.1196 13.6131 51.3828 11.3045 49.1615 9.37598C46.8855 7.39999 44.2933 6.00744 41.3667 5.26108C40.3617 5.00447 39.3341 4.87173 38.2963 4.81638C36.6691 4.72916 35.0443 4.80224 33.4193 4.88491C32.6868 4.92204 31.9538 4.95679 31.2206 4.97476C30.9496 4.97843 30.6787 4.96008 30.4106 4.91989C29.8828 4.84633 29.5442 4.54731 29.4137 4.02282C29.3341 3.69619 29.3171 3.3574 29.3635 3.0244C29.3984 2.76084 29.5432 2.55023 29.7346 2.37125C29.9598 2.15945 30.2273 2.02335 30.5145 1.91601C31.0866 1.70037 31.6834 1.60764 32.2877 1.54822C33.577 1.42171 34.8672 1.44496 36.1403 1.53049C37.0183 1.56547 37.8785 1.60525 38.74 1.63256C40.1365 1.67713 41.4919 1.95722 42.8245 2.35304C44.3859 2.81643 45.8927 3.42454 47.3591 4.13112C48.7913 4.82141 50.0791 5.73237 51.266 6.78446C53.8419 9.06565 55.9516 11.8253 57.4783 14.9105C57.8763 15.712 58.2135 16.5398 58.4288 17.4112C58.5159 17.7682 58.5882 18.1279 58.576 18.499Z" fill="#25282B"/>
<path d="M46.2038 52.5473C45.9123 52.1261 45.5871 51.7327 45.1882 51.4073C44.942 51.207 44.6857 51.0177 44.3622 50.9458C44.2861 51.1176 44.3301 51.2733 44.3526 51.4272C44.4361 51.9964 44.5986 52.5513 44.8353 53.0756C45.0777 53.6135 45.3442 54.1404 45.5957 54.6742C45.8542 55.2217 46.1222 55.7668 46.3591 56.3239C46.9616 57.7358 47.1425 59.2159 46.9633 60.7325C46.7092 62.8758 45.8956 64.7938 44.5555 66.4854C43.9274 67.2792 43.2057 67.9762 42.3361 68.5033C41.3789 69.0826 40.381 69.5798 39.3313 69.966C38.4298 70.2976 37.5038 70.5257 36.5394 70.5701C35.6923 70.6098 34.8529 70.525 34.0125 70.4263C33.3008 70.3429 32.5846 70.2962 31.8701 70.2382C31.7789 70.2308 31.6854 70.2543 31.5875 70.2641C31.5133 70.5142 31.5298 70.7543 31.5121 70.9901C31.4951 71.2117 31.5975 71.3476 31.8062 71.4245C32.2546 71.5905 32.7009 71.7573 33.1795 71.822C33.4442 71.8579 33.7222 71.8584 33.9651 72L35.1137 71.9981C35.2827 71.9583 35.4487 71.9023 35.621 71.8816C36.4432 71.7808 37.2664 71.688 38.0783 71.5146C38.9202 71.3378 39.7488 71.1022 40.5579 70.8097C42.036 70.2703 43.2942 69.3805 44.4344 68.3178C46.7063 66.2005 47.9631 63.5797 48.1933 60.4843C48.3495 58.3828 48.01 56.3488 47.1995 54.3985C46.9298 53.7479 46.6048 53.1269 46.2038 52.5473Z" fill="#25282B"/>
<path d="M34.0661 68.8355C35.518 68.8405 36.9657 68.6779 38.3805 68.3511C39.5344 68.0851 40.645 67.7022 41.6854 67.125C42.6989 66.5691 43.5363 65.7395 44.1023 64.7307C44.3228 64.3425 44.5155 63.939 44.6787 63.5233C45.2052 62.1816 45.3899 60.7809 45.3579 59.3454C45.3384 58.4173 45.1478 57.5008 44.7958 56.642C44.2987 55.4227 43.5299 54.3898 42.5675 53.5059C40.9077 51.983 39.0436 50.7668 36.9548 49.9166C36.2925 49.6471 35.6014 49.4458 34.9191 49.2268C33.3477 48.7237 31.7332 48.4493 30.089 48.3365C28.9921 48.261 27.8947 48.1949 26.8018 48.059C24.6855 47.7955 22.8023 47.0168 21.2103 45.5806C20.6063 45.0357 20.0047 44.4859 19.4337 43.907C18.2236 42.68 17.0386 41.4281 15.8352 40.1946C15.0329 39.3723 14.2265 38.5533 13.4019 37.7538C13.0126 37.3762 12.5973 37.0264 12.159 36.7072C11.2243 36.0272 10.1668 35.7141 9.0101 35.7922C8.12089 35.8521 7.29126 36.1298 6.52552 36.5812C5.01964 37.4677 3.93086 38.7258 3.2369 40.33C2.88371 41.148 2.70089 42.0024 2.73175 42.8937C2.75568 43.5792 2.78775 44.2654 2.84997 44.9485C3.00096 46.5946 3.39221 48.1872 3.97465 49.7334C4.90957 52.2147 6.31972 54.4027 8.07303 56.3777C9.75622 58.2739 11.678 59.8999 13.7512 61.3473C16.9513 63.5832 20.3732 65.4248 23.9423 66.9928C25.0517 67.4798 26.2 67.8726 27.3752 68.1668C29.2266 68.6316 31.1125 68.7938 33.0012 68.8377C33.3649 68.8377 33.7165 68.8353 34.0661 68.8355ZM7.99574 54.3342C7.26541 53.9003 6.6478 52.8985 6.56285 51.9983C6.93495 51.9861 7.29269 52.0297 7.57984 52.2779C7.88279 52.5415 8.10773 52.87 8.19387 53.2718C8.24365 53.5032 8.26805 53.7395 8.30514 53.9824L7.99574 54.3342ZM11.1417 57.6457C10.2841 57.5856 9.66337 56.879 9.53846 55.8204C9.83902 55.5116 10.4238 55.1572 10.8546 55.0242C11.5818 55.8204 11.6581 56.9588 11.1417 57.6457ZM13.5586 39.05C14.0657 39.2331 14.2671 39.7674 14.0255 40.2516C13.9776 40.3475 13.9106 40.4356 13.8527 40.5274C13.6242 40.531 13.4363 40.445 13.2487 40.3686C12.9943 40.2646 12.8378 40.0702 12.8089 39.7957C12.7816 39.5307 12.7749 39.2633 12.7577 38.9688C13.0788 38.8837 13.3236 38.9664 13.5581 39.05H13.5586ZM15.2191 59.9298C15.2179 59.9897 15.192 60.0496 15.1789 60.1035C14.1315 60.2044 12.8694 59.5158 12.2504 58.5176C12.7005 57.6174 13.6383 57.0704 14.6672 57.1663C14.9568 57.6375 15.2296 58.1352 15.2308 58.7342C15.2308 59.1319 15.2255 59.5309 15.2191 59.9298ZM15.493 44.3776C15.2169 44.1933 14.9242 44.0325 14.685 43.8169C14.528 42.9222 14.8252 42.1636 15.741 41.6691C16.2109 41.9032 16.8137 42.496 17.2047 43.1307C17.4282 43.4932 17.6383 43.8655 17.6421 44.3339C17.5464 44.3546 17.4732 44.3819 17.399 44.3843C17.0016 44.3924 16.605 44.4164 16.2181 44.5122C15.9511 44.5783 15.7146 44.5256 15.4923 44.3776H15.493ZM19.1107 62.5554C19.0308 62.9028 18.8137 63.0209 18.4706 62.9085C18.3502 62.8688 18.2349 62.8151 18.127 62.7485C17.46 62.338 16.8879 61.8155 16.3114 61.2598C16.8178 60.0448 17.4632 59.5417 18.6984 59.6329C18.7223 59.6622 18.7644 59.6945 18.775 59.7353C18.9752 60.5216 19.1449 61.3133 19.1471 62.1313C19.151 62.2736 19.1387 62.4158 19.1107 62.5554ZM20.1107 48.066C19.7697 48.4393 19.3526 48.6434 18.8573 48.6889C18.5579 48.7158 18.2562 48.7172 17.9276 48.7311C17.5507 47.9802 17.4696 47.2513 17.6713 46.4997C17.7174 46.3304 17.7883 46.169 17.8817 46.0205C18.1688 45.5621 18.6168 45.4198 19.1241 45.6057C19.3981 45.7057 19.6328 45.8707 19.8482 46.061C20.2583 46.4204 20.59 46.8476 20.9063 47.3196C20.8367 47.3927 20.7781 47.4617 20.7118 47.5223C20.5118 47.7027 20.2921 47.8669 20.1107 48.066ZM23.0904 65.0005C22.8016 65.0848 22.5352 65.0271 22.2768 64.9792C22.076 64.9425 21.8791 64.8658 21.691 64.7829C21.2701 64.598 20.8556 64.3981 20.3823 64.1779C20.3667 63.6848 20.4928 63.2579 20.9255 62.9423C21.2744 62.6891 21.6072 62.4152 22.0023 62.2388C22.16 62.1684 22.3275 62.119 22.5189 62.0486C23.1179 62.9615 23.1397 63.9625 23.0904 65.0005ZM23.814 49.6124C23.6944 50.017 23.4383 50.3072 23.0406 50.4644C22.7138 50.5941 22.3627 50.6514 22.0116 50.6321C21.7329 50.618 21.5627 50.4749 21.5278 50.1984C21.5031 50.0089 21.5049 49.8169 21.5331 49.6279C21.6082 49.1717 21.7444 48.7277 21.9379 48.308C21.9566 48.2668 21.9968 48.2361 22.0408 48.1829C22.6965 48.1989 23.3057 48.3947 23.8944 48.7076V48.7062C23.9533 49.0538 23.8942 49.3356 23.814 49.6124ZM36.4221 50.9541C37.0235 51.1168 37.1214 51.2431 37.1728 51.9173C36.4513 51.9053 36.2228 51.6538 36.1987 50.911C36.2994 50.9309 36.3619 50.9395 36.4221 50.9536V50.9541ZM30.4786 49.5738C30.7078 49.5273 30.9399 49.5738 31.1725 49.6116C32.6128 49.8599 32.7258 49.8886 33.1288 50.1043C33.0024 50.8846 32.441 51.3068 31.8399 51.688C30.7014 51.2749 30.2706 50.5219 30.4786 49.5738ZM26.0995 49.5498C26.1368 49.2405 26.3067 49.0706 26.613 48.9987C26.6756 48.9872 26.7388 48.9792 26.8023 48.9748C27.1677 48.9321 28.3644 48.9652 28.7827 49.0337C28.7877 49.1171 28.8052 49.2086 28.7963 49.2973C28.7334 49.9399 28.4912 50.5041 28.0067 50.939C27.7592 51.1614 27.4788 51.3492 27.2062 51.5409C27.0466 51.6538 26.86 51.6935 26.6427 51.6799C26.4991 51.3392 26.3668 51.033 26.2342 50.726C26.0715 50.346 26.0516 49.95 26.0995 49.5498ZM27.4491 66.8404C27.1952 66.8459 26.9415 66.8224 26.6929 66.7702C26.0758 66.6422 25.4381 66.383 25.0131 66.118C24.91 65.7696 25.0023 65.4667 25.2091 65.1778C25.5147 64.7491 25.8222 64.3229 26.2017 63.9558C26.5343 63.6338 26.6822 63.5418 27.1663 63.8657C27.8339 64.3124 28.2055 64.9679 28.3364 65.7598C28.3405 65.7916 28.3427 65.8236 28.3431 65.8556C28.368 66.4793 28.067 66.8236 27.4491 66.8404ZM31.5224 66.9841C31.5154 67.1758 31.4133 67.3153 31.2395 67.3946C31.1534 67.4339 31.0617 67.4748 30.9691 67.4849C30.5245 67.5339 30.0756 67.5305 29.6317 67.4748C29.4987 67.1243 29.4936 66.7781 29.5647 66.4307C29.6109 66.2047 29.7511 66.0233 29.9256 65.8796C30.1582 65.6879 30.4042 65.5125 30.6475 65.3271C31.0304 65.4766 31.2718 65.7325 31.4133 66.088C31.5255 66.3768 31.5334 66.6813 31.5224 66.9844V66.9841ZM32.5875 66.9226C32.4855 66.522 32.4276 66.1079 32.3242 65.7073C32.0455 64.6272 31.766 63.5461 31.4594 62.4727C31.3374 62.0452 31.1586 61.6312 30.9785 61.2239C30.7083 60.612 30.2857 60.1172 29.7353 59.7367C29.4597 59.5464 29.1823 59.3584 28.9007 59.1777C27.9725 58.5825 27.1033 57.91 26.255 57.206C25.9284 56.9346 25.7676 56.631 25.8088 56.2124C25.8219 56.0892 25.8253 55.9651 25.8327 55.8422C25.9009 55.8202 25.9435 55.7943 25.9878 55.7926C27.7324 55.7234 29.4269 55.9299 31.0041 56.7407C31.5695 57.0318 32.1381 57.323 32.6791 57.6584C34.4999 58.7845 35.537 60.4359 35.879 62.5391C36.1204 64.0246 36.1592 65.525 36.1551 67.027C36.1551 67.0733 36.1372 67.1195 36.1238 67.1847C35.8045 67.3203 35.4478 67.321 35.1106 67.4003C34.5159 67.54 33.9055 67.5156 33.3003 67.4986C32.8837 67.4873 32.6908 67.3301 32.5875 66.9228V66.9226Z" fill="#25282B"/>
<path d="M52.7604 24.5168C50.5728 22.7493 48.0396 21.9009 45.2516 21.7981C43.8328 21.7459 42.4124 21.795 40.996 21.8992C40.4876 21.9395 39.9815 22.0053 39.4796 22.0964C39.0199 22.1764 38.5997 22.3441 38.2614 22.7035C37.946 23.0366 37.5097 23.1439 36.9563 23.0869C36.9472 22.9369 36.9429 22.7802 36.9263 22.625C36.8773 22.1652 36.8462 21.7023 36.7675 21.247C36.4585 19.4653 35.7203 17.8686 34.6196 16.4437C32.9014 14.2195 30.6872 12.6916 28.0268 11.8084C26.3828 11.2631 24.7023 11.0692 22.9813 11.335C21.9595 11.4929 21.0057 11.8367 20.1425 12.4117C19.1578 13.0663 18.2258 13.7897 17.3643 14.6024C16.4899 15.4276 15.7132 16.3335 15.0831 17.3621C14.0381 19.0693 13.5349 20.9231 13.5995 22.9245C13.6289 23.8201 13.7943 24.6989 13.9735 25.5761C14.4004 27.6645 15.4067 29.4188 16.9709 30.8564C18.4185 32.1929 20.1507 33.182 22.0365 33.7489C22.9868 34.0364 23.9549 34.218 24.949 34.2564C25.1332 34.264 25.3297 34.2324 25.5211 34.3522C25.451 34.6793 25.3058 34.9627 25.1191 35.2179C24.8367 35.6032 24.5343 35.9753 24.2318 36.3459C23.91 36.7415 23.5697 37.1227 23.2507 37.5214C22.081 38.983 21.513 40.6602 21.4771 42.5264C21.4694 42.9299 21.58 43.2805 21.8494 43.5807C22.244 44.0201 22.7305 44.3136 23.2943 44.4754C23.5247 44.5412 23.764 44.5712 24.0033 44.5046C24.4012 44.3925 24.8085 44.3045 25.1938 44.1584C26.8222 43.5414 28.2567 42.5964 29.5858 41.4856C29.8648 41.2525 30.1014 40.9645 30.3369 40.6841C30.5618 40.413 30.7324 40.101 30.8394 39.7653C30.8928 39.6014 30.943 39.4373 30.9191 39.2535C30.6583 39.2056 30.4582 39.3146 30.2553 39.3941C29.7602 39.588 29.3221 39.882 28.9153 40.2174C28.4728 40.5823 28.0514 40.9767 27.6114 41.3435C27.1713 41.7104 26.7286 42.0791 26.262 42.4117C25.6829 42.8245 25.0339 43.0924 24.3237 43.1784C23.9291 43.2263 23.5309 43.2464 23.1337 43.2716C23.0444 43.2771 22.9521 43.251 22.853 43.2383C22.8389 43.154 22.8202 43.0931 22.8202 43.0322C22.8202 42.3288 22.8499 41.6275 22.9695 40.9326C23.1296 40.001 23.4917 39.1596 24.1079 38.4367C24.3673 38.1331 24.6269 37.8307 24.8937 37.5341C25.5364 36.8242 26.1307 36.0718 26.6724 35.2819C26.8518 35.0183 27.0438 34.7629 27.2244 34.4993C27.4321 34.1962 27.7099 34.024 28.0689 33.9224C29.3249 33.5663 30.4736 32.9922 31.4786 32.1455C31.759 31.9092 32.0529 31.6903 32.346 31.4681C32.4178 31.4138 32.5073 31.3828 32.587 31.3419C32.7784 31.523 32.8371 31.7281 32.8344 31.962C32.8292 32.4256 32.8375 32.8887 32.8272 33.3516C32.8165 33.8495 32.8751 34.341 32.9601 34.8283C33.2472 36.4816 33.9211 37.9644 34.9395 39.2916C36.1994 40.9333 37.7926 42.1555 39.6658 43.0164C41.0877 43.6701 42.5806 44.0434 44.1475 44.0791C45.248 44.1054 46.3489 44.0537 47.4421 43.9243C48.9595 43.7427 50.3503 43.2313 51.603 42.353C52.4919 41.7281 53.2979 40.9927 54.0016 40.1645C54.8652 39.1538 55.4592 37.9997 55.7927 36.7099C55.9765 35.9964 56.1038 35.2723 56.144 34.5391C56.2017 33.5194 56.2283 32.497 56.2397 31.4756C56.2474 30.7065 56.1275 29.9486 55.9174 29.207C55.3754 27.2988 54.2895 25.7522 52.7604 24.5168ZM29.4494 32.059C28.6643 32.6384 27.7743 32.9613 26.8116 33.1073C25.4106 33.3205 24.0466 33.1279 22.7066 32.7239C20.6903 32.116 18.8972 31.1231 17.3923 29.6268C16.102 28.344 15.4179 26.7995 15.2743 24.9896C15.1827 23.8254 15.1827 22.6609 15.2066 21.4967C15.2305 20.349 15.5242 19.2543 16.0286 18.2256C17.3626 15.5038 19.4565 13.6682 22.3878 12.8272C23.144 12.6104 23.9193 12.5351 24.4757 12.5251C26.1452 12.5251 27.5168 12.854 28.8124 13.4736C30.9533 14.4977 32.7203 15.9863 34.1321 17.8907C34.8045 18.7971 35.2838 19.8022 35.5042 20.9173C35.754 22.1822 35.6509 23.4262 35.2635 24.6501C34.8852 25.8385 34.3144 26.9565 33.5741 27.9597C32.4149 29.5432 31.0249 30.896 29.4494 32.059ZM53.4984 38.2558C53.1 38.8725 52.6831 39.4802 52.2266 40.0528C51.0779 41.4938 49.557 42.3503 47.7824 42.7723C45.8757 43.2256 43.9819 43.1017 42.1111 42.5684C40.259 42.0412 38.604 41.1387 37.1721 39.8408C35.5152 38.3392 34.5159 36.4775 34.1359 34.2763C34.0347 33.6781 33.9738 33.0739 33.9536 32.4675C33.9158 31.4293 34.112 30.4352 34.4863 29.4725C35.0469 28.0301 35.8517 26.7296 36.8433 25.5505C37.8278 24.3803 39.1066 23.6533 40.5579 23.2165C41.6203 22.8967 42.7115 22.7814 43.7357 22.7783C45.918 22.8099 47.9262 23.2518 49.8243 24.1594C50.1832 24.3312 50.5312 24.5281 50.8736 24.7308C51.6511 25.1908 52.3268 25.7678 52.8487 26.5132C53.2237 27.0489 53.5996 27.5845 53.9681 28.1248C54.2232 28.4978 54.3701 28.9171 54.4625 29.3604C54.6906 30.4565 54.8578 31.5647 54.9002 32.68C54.9753 34.6687 54.5965 36.5601 53.4979 38.2558H53.4984Z" fill="#25282B"/>
<path d="M8.71027 58.5773C8.29964 58.1312 7.8749 57.698 7.45039 57.265C4.48698 54.2429 2.54056 50.6472 1.46613 46.5692C1.01482 44.8546 0.866701 43.1106 1.12083 41.3459C1.28427 40.2114 1.63579 39.1387 2.229 38.1564C2.90669 37.0332 3.76922 36.0329 4.78011 35.1978C6.16801 34.0477 7.7842 33.7158 9.53344 33.901C10.5265 34.0062 11.4648 34.3213 12.3538 34.765C13.0374 35.1074 13.7017 35.4894 14.3667 35.8672C14.9073 36.1744 15.4351 36.5038 15.9714 36.8189C16.0458 36.8625 16.1356 36.8802 16.2243 36.9121C16.283 36.7204 16.2356 36.5688 16.1925 36.4154C16.0417 35.8763 15.7297 35.4381 15.3351 35.0547C14.8728 34.6038 14.3341 34.264 13.7618 33.9765C12.9316 33.5594 12.0561 33.2685 11.1561 33.0466C9.70142 32.6872 8.23408 32.5777 6.74495 32.795C5.65808 32.9539 4.69253 33.3734 3.87343 34.1059C3.48146 34.4552 3.11439 34.834 2.7442 35.2081C1.83273 36.1293 1.17563 37.2176 0.689385 38.4115C0.227069 39.546 -0.0328037 40.7242 0.00332967 41.9576C0.0346771 43.0119 0.0473597 44.0661 0.106465 45.117C0.161761 46.0573 0.301271 46.9908 0.523315 47.9062C0.910013 49.5216 1.57621 51.0176 2.42714 52.4346C3.63231 54.4504 5.04378 56.3352 6.6387 58.0583C7.08594 58.5357 7.56029 58.9868 8.05939 59.4094C8.39656 59.697 8.78469 59.9277 9.1623 60.1642C9.31616 60.26 9.48654 60.358 9.72153 60.3367C9.6976 60.1548 9.63323 59.9974 9.56455 59.8417C9.35636 59.368 9.0582 58.9539 8.71027 58.5773Z" fill="#25282B"/>
<path d="M48.3483 46.557C47.663 46.5917 46.9827 46.666 46.3205 46.8598C45.8779 46.9902 45.4345 47.1192 44.9906 47.247C43.9733 47.5398 42.9539 47.547 41.9199 47.3163C40.5443 47.0149 39.2601 46.3901 38.1733 45.4934C37.7785 45.1697 37.3956 44.8319 36.9948 44.5161C36.7195 44.2993 36.4325 44.0978 36.1353 43.9123C35.8376 43.7266 35.511 43.6039 35.1393 43.5874C35.0467 43.8006 35.1116 44.0029 35.1633 44.1977C35.2961 44.7008 35.5624 45.1333 35.9051 45.521C36.2346 45.8935 36.6112 46.2129 37.0166 46.4983C37.6941 46.9766 38.405 47.4057 39.1437 47.7823C39.6995 48.0648 40.2762 48.2931 40.8869 48.4259C42.5435 48.7882 44.2567 48.8062 45.9204 48.4788C46.484 48.3693 47.0334 48.2016 47.5431 47.9261C47.8401 47.7655 48.115 47.5748 48.3206 47.3017C48.4735 47.0982 48.6106 46.8848 48.5867 46.5891C48.4993 46.5766 48.4232 46.5532 48.3483 46.557Z" fill="#25282B"/>
<path d="M15.891 34.4107C17.2109 35.5797 18.7419 36.2539 20.4957 36.4161C20.7943 36.4437 21.0968 36.4739 21.4079 36.413C21.4158 35.9961 21.2164 35.6985 20.8915 35.4965C20.6503 35.3465 20.3837 35.233 20.1179 35.129C19.7324 34.9797 19.3349 34.8623 18.947 34.7185C17.6574 34.2408 16.5933 33.4527 15.7778 32.3465C15.4574 31.9116 15.1741 31.4468 14.9025 30.9791C14.5397 30.3561 14.2698 29.6934 14.1879 28.9665C14.1772 28.8713 14.1602 28.7769 14.137 28.684C14.0314 28.2647 13.8548 27.8823 13.5722 27.5485C13.5047 27.5911 13.4595 27.6103 13.4267 27.6422C13.0891 27.9692 12.9359 28.377 12.9075 28.8402C12.862 29.5762 13.0604 30.2622 13.3439 30.9273C13.923 32.2854 14.7883 33.4338 15.891 34.4107Z" fill="#25282B"/>
<path d="M45.9384 31.384C45.5624 31.3337 45.18 31.3306 44.8 31.3138C44.7225 31.3105 44.6431 31.3347 44.5658 31.3522C44.1748 31.442 43.9312 31.6842 43.8139 32.0676C43.7017 32.4342 43.7969 32.7577 44.008 33.0572C44.26 33.4146 44.6062 33.6698 44.969 33.8989C45.0377 33.9427 45.1657 33.9648 45.2322 33.93C45.5215 33.7795 45.8388 33.7654 46.1777 33.7235C46.3148 33.1925 46.4435 32.6724 46.4887 32.1347C46.4904 32.1028 46.4904 32.0708 46.4887 32.0389C46.4777 31.6476 46.3212 31.436 45.9384 31.384Z" fill="#25282B"/>
<path d="M24.3287 19.9113C24.2244 19.709 24.0598 19.5962 23.8303 19.6067C23.3778 19.6271 22.9449 19.7265 22.5778 20.0066C22.238 20.2636 21.9624 20.596 21.7726 20.9777C22.0597 21.4128 22.3806 21.8202 22.8145 22.1297C22.8799 22.175 22.9492 22.2144 23.0215 22.2476C23.4388 22.4458 23.8164 22.3739 24.0763 22.0008C24.4917 21.404 24.5805 20.742 24.3852 20.0423C24.3709 19.9968 24.352 19.9529 24.3287 19.9113Z" fill="#25282B"/>
</svg>
